HIERARCHY
ROOT Hips
{
	OFFSET -3.958830 18.904000 13.208200
	CHANNELS 6 Xposition Yposition Zposition Zrotation Yrotation Xrotation 
	JOINT LHipJoint
	{
		OFFSET 0.000000 0.000000 0.000000
		CHANNELS 3 Zrotation Yrotation Xrotation
		JOINT LeftUpLeg
		{
			OFFSET 1.800000 -1.400000 0.085000
			CHANNELS 3 Zrotation Yrotation Xrotation
			JOINT LeftLeg
			{
				OFFSET 2.215000 -6.000000 0.000000
				CHANNELS 3 Zrotation Yrotation Xrotation
				JOINT LeftFoot
				{
					OFFSET 2.500000 -6.900000 0.000000
					CHANNELS 3 Zrotation Yrotation Xrotation
					JOINT LeftToeBase
					{
						OFFSET 0.200000 -0.500000 1.950000
						CHANNELS 3 Zrotation Yrotation Xrotation
						End Site
						{
							OFFSET 0.000000 0.000000 0.000000
						}
					}
				}
			}
		}
	}
	JOINT RHipJoint
	{
		OFFSET 0.000000 0.000000 0.000000
		CHANNELS 3 Zrotation Yrotation Xrotation
		JOINT RightUpLeg
		{
			OFFSET -1.800000 -1.400000 0.085000
			CHANNELS 3 Zrotation Yrotation Xrotation
			JOINT RightLeg
			{
				OFFSET -2.215000 -6.000000 0.000000
				CHANNELS 3 Zrotation Yrotation Xrotation
				JOINT RightFoot
				{
					OFFSET -2.500000 -6.900000 0.000000
					CHANNELS 3 Zrotation Yrotation Xrotation
					JOINT RightToeBase
					{
						OFFSET -0.200000 -0.500000 1.950000
						CHANNELS 3 Zrotation Yrotation Xrotation
						End Site
						{
							OFFSET 0.000000 0.000000 0.000000
						}
					}
				}
			}
		}
	}
	JOINT LowerBack
	{
		OFFSET 0.000000 0.000000 0.000000
		CHANNELS 3 Zrotation Yrotation Xrotation
		JOINT Spine
		{
			OFFSET -0.087000 1.940000 -0.288900
			CHANNELS 3 Zrotation Yrotation Xrotation
			JOINT Spine1
			{
				OFFSET 0.000000 1.950000 0.060000
				CHANNELS 3 Zrotation Yrotation Xrotation
				JOINT Neck
				{
					OFFSET 0.000000 0.000000 0.000000
					CHANNELS 3 Zrotation Yrotation Xrotation
					JOINT Neck1
					{
						OFFSET 0.000000 1.600000 0.340000
						CHANNELS 3 Zrotation Yrotation Xrotation
						JOINT Head
						{
							OFFSET 0.000000 1.667000 -0.240000
							CHANNELS 3 Zrotation Yrotation Xrotation
							End Site
							{
								OFFSET 0.000000 0.000000 0.000000
							}
						}
					}
				}
				JOINT LeftShoulder
				{
					OFFSET 0.000000 0.000000 0.000000
					CHANNELS 3 Zrotation Yrotation Xrotation
					JOINT LeftArm
					{
						OFFSET 2.700000 1.550000 -0.730000
						CHANNELS 3 Zrotation Yrotation Xrotation
						JOINT LeftForeArm
						{
							OFFSET 5.450000 0.000000 0.000000
							CHANNELS 3 Zrotation Yrotation Xrotation
							JOINT LeftHand
							{
								OFFSET 3.450000 0.000000 0.000000
								CHANNELS 3 Zrotation Yrotation Xrotation
								JOINT LeftHandIndex1
								{
									OFFSET 0.750000 0.000000 0.000000
									CHANNELS 3 Zrotation Yrotation Xrotation
									End Site
									{
										OFFSET 0.000000 0.000000 0.000000
									}
								}
							}
						}
					}
				}
				JOINT RightShoulder
				{
					OFFSET 0.000000 0.000000 0.000000
					CHANNELS 3 Zrotation Yrotation Xrotation
					JOINT RightArm
					{
						OFFSET -2.700000 1.550000 -0.730000
						CHANNELS 3 Zrotation Yrotation Xrotation
						JOINT RightForeArm
						{
							OFFSET -5.450000 0.000000 0.000000
							CHANNELS 3 Zrotation Yrotation Xrotation
							JOINT RightHand
							{
								OFFSET -3.450000 0.000000 0.000000
								CHANNELS 3 Zrotation Yrotation Xrotation
								JOINT RightHandIndex1
								{
									OFFSET -0.750000 0.000000 0.000000
									CHANNELS 3 Zrotation Yrotation Xrotation
									End Site
									{
										OFFSET 0.000000 0.000000 0.000000
									}
								}
							}
						}
					}
				}
			}
		}
	}
}
MOTION
Frames: 14
Frame Time: 0.016667
-1.548230 15.804200 0.043740 -12.008776 0.487812 -2.853743 -14.824705 11.348824 2.990938 -2.717890 -4.829061 -26.753233 -1.168479 6.091181 29.150320 -0.211239 4.433197 2.992252 0.324570 0.249440 0.095570 18.687012 -11.684907 2.908826 -20.334881 0.914899 -1.324465 6.374329 -4.830432 2.338294 -0.365759 -5.097611 2.684601 0.307060 0.293230 0.108870 -4.713926 2.674543 -6.854614 6.236460 10.709166 5.608763 6.421817 9.512748 10.013557 -0.566829 7.064864 -5.549563 13.146363 -6.917747 30.131818 6.488830 -5.484620 -4.239210 -12.259596 3.589065 3.694799 -35.451564 3.572726 -2.799547 97.285164 -70.624594 -68.524618 -3.391674 0.706327 0.009940 0.211640 -0.157520 0.202500 14.579334 -3.843179 -0.379305 53.849047 15.585082 1.416931 27.734244 45.199529 8.747884 2.187115 -1.801775 -0.103350 0.181920 -0.057120 -0.010460 
-1.546520 15.763740 0.074660 -11.893501 0.171808 -3.055084 -14.846150 11.367110 3.003320 -2.450950 -4.890272 -26.758755 -1.533584 6.491027 30.317763 -0.154268 4.685622 2.902500 0.329350 0.256540 0.094390 18.661157 -11.626073 2.897885 -21.142731 1.004352 -2.509296 6.277436 -4.720488 2.253341 -0.336290 -5.023235 2.695584 0.307980 0.293220 0.113380 -4.645711 2.574324 -6.862162 5.839252 10.759031 5.828987 6.719460 9.611612 9.688797 -0.623170 7.274855 -5.297694 13.430116 -7.294281 30.058447 6.419060 -5.684250 -3.850050 -12.805060 3.944054 3.608579 -35.120211 2.791469 -1.918147 99.374160 -70.093263 -70.925972 -3.478528 0.782860 -0.004640 0.216290 -0.160340 0.208810 15.241924 -4.264036 -0.697835 53.744350 14.968339 0.608393 24.555151 43.658739 7.169871 2.193864 -1.782045 -0.093390 0.170400 -0.065640 -0.003820 
-1.522260 15.649420 0.154520 -11.505262 -1.570912 -3.936710 -14.918169 11.413380 3.052943 -1.711001 -4.998729 -26.821515 -2.832490 7.821521 33.537460 -0.022827 5.474960 2.621956 0.335700 0.262850 0.109010 18.586333 -11.459329 2.870192 -22.694738 1.170344 -4.890055 5.557704 -4.394549 1.857456 -0.282913 -4.832292 2.728116 0.316010 0.292070 0.113270 -4.425021 2.277111 -6.885954 4.854831 11.328633 6.590522 7.916232 10.328171 8.973808 -0.612254 7.938586 -4.678459 14.383632 -7.925699 30.107536 6.216400 -5.552040 -3.559360 -14.849602 4.306674 3.409154 -33.644210 1.074944 0.071566 104.443720 -68.788502 -77.433603 -3.712751 1.081890 -0.006750 0.223900 -0.160190 0.209080 17.297740 -4.776037 -1.465750 51.992597 13.323444 -1.189517 18.276792 38.431326 4.063196 2.211283 -1.699400 -0.097850 0.170780 -0.073400 -0.010380 
-1.483460 15.516720 0.237620 -10.672474 -2.267993 -4.697755 -15.032219 11.412373 3.238815 -1.175619 -5.592987 -27.509061 -4.719914 9.600233 37.392264 0.150400 6.510607 2.252062 0.345230 0.271790 0.132210 18.490157 -11.196671 2.792669 -24.058776 1.212586 -7.703063 4.579047 -4.023892 1.593950 -0.219922 -4.580476 2.769298 0.330860 0.283900 0.120730 -4.124544 1.813964 -6.981866 3.550143 11.444505 7.565467 8.543867 10.692849 8.002237 -0.386695 8.486030 -3.868235 14.958378 -8.478968 30.331952 5.434180 -5.199940 -3.470180 -17.211075 4.461311 2.674934 -32.611602 -1.939294 1.396432 106.765895 -67.552236 -79.846382 -3.828277 1.368368 -0.009390 0.236710 -0.160040 0.197810 19.251892 -5.175138 -2.182684 50.283972 11.979938 -2.462447 10.500270 31.962986 1.120561 2.238050 -1.600475 -0.101190 0.166110 -0.073020 -0.025470 
-1.432540 15.399620 0.315420 -9.922948 -2.061059 -5.714082 -15.140995 11.462319 3.486600 -0.992416 -6.492518 -27.924734 -6.098247 11.067216 40.988270 0.343407 7.450472 1.933132 0.337260 0.253470 0.152080 18.393144 -10.964797 2.695380 -24.946320 0.963942 -10.635888 4.075260 -3.852991 2.162317 -0.155508 -4.289706 2.831263 0.318100 0.268180 0.116070 -3.832428 1.245531 -7.175900 2.778424 10.799165 9.086876 8.513574 10.315856 6.974054 -0.266911 8.740850 -3.374186 14.864498 -8.640992 31.768136 5.079030 -4.733410 -3.065160 -18.743663 4.436574 1.842693 -32.376127 -4.889239 2.236807 105.622435 -68.538128 -79.520932 -3.775562 1.163069 0.008550 0.230760 -0.151230 0.184430 20.556092 -5.543568 -2.447459 49.120059 9.832446 -3.863525 5.574629 27.699437 -0.293127 2.274136 -1.527380 -0.110090 0.161930 -0.073740 -0.042990 
-1.374400 15.287290 0.390580 -9.468203 -0.913697 -6.984960 -15.225759 11.566203 3.727839 -0.659773 -7.350518 -27.588938 -7.997683 12.614447 43.882079 0.545864 8.331706 1.635352 0.332080 0.236700 0.173160 18.308013 -10.773156 2.613097 -25.001495 0.595370 -12.994071 3.514202 -3.705045 2.693045 -0.117689 -3.994717 2.906557 0.296340 0.237100 0.119130 -3.593458 0.636204 -7.432785 2.884559 9.559943 11.054202 8.166417 9.403095 6.018681 -0.184168 8.515562 -3.111437 13.809647 -8.425064 34.443597 4.798620 -4.187700 -2.918750 -19.509515 4.519227 1.151832 -32.522423 -7.573698 3.336440 107.065700 -67.465309 -80.703437 -3.796032 1.370124 0.044520 0.209580 -0.123330 0.166790 21.145998 -5.917221 -2.608116 46.886237 7.905621 -4.673673 1.713852 23.150817 -1.017854 2.325031 -1.450563 -0.108340 0.152340 -0.070210 -0.061530 
-1.307800 15.205820 0.425960 -9.003107 0.130563 -8.532671 -15.311578 11.796942 3.920650 -0.377455 -7.915688 -26.139804 -10.182763 14.071427 45.650218 0.706341 9.032541 1.390627 0.356010 0.254730 0.223440 18.206761 -10.616855 2.542922 -23.955240 0.122613 -16.637238 2.537068 -3.431567 3.521270 -0.076563 -3.511680 3.041135 0.293560 0.176750 0.121710 -3.328314 -0.073745 -7.698724 3.020568 8.322272 13.860792 7.387227 8.506017 5.417023 0.105492 8.291472 -3.231613 12.724889 -7.826098 37.216270 4.664050 -3.052860 -3.963630 -19.999759 3.684043 0.249823 -32.309799 -11.449976 4.128133 104.565509 -67.944042 -77.676063 -3.652917 1.141224 0.109990 0.168040 -0.067850 0.145440 20.966300 -5.608283 -2.019612 44.744127 5.393446 -5.753276 -2.611396 20.917089 -1.534712 2.339474 -1.396822 -0.104920 0.145970 -0.078060 -0.094320 
-1.243340 15.133590 0.422610 -8.756749 1.983666 -9.967545 -15.396710 11.951447 4.180335 -0.488883 -9.015030 -25.540948 -11.849915 15.113356 47.557233 0.847308 9.647008 1.182848 0.386360 0.282410 0.269580 18.121867 -10.400401 2.499749 -22.644544 -0.290849 -19.762245 2.241527 -3.284812 4.302586 -0.051167 -3.117261 3.153809 0.300300 0.126040 0.123580 -3.100698 -0.816061 -7.998907 3.394343 6.807685 17.135748 6.525420 7.321033 5.128084 0.329080 7.795309 -3.585254 11.028651 -7.520348 38.956751 4.555250 -2.791360 -5.637730 -20.719588 1.338282 -0.915222 -31.837954 -15.753599 2.798498 95.082709 -69.452649 -66.183973 -3.264466 0.735244 0.166200 0.126750 -0.017530 0.129390 21.070061 -3.795179 -0.579389 41.546671 3.010650 -6.206994 -5.492191 19.604520 -1.699204 2.336047 -1.371031 -0.099010 0.152980 -0.085540 -0.116610 
-1.181490 15.057860 0.440400 -7.708128 1.455307 -11.207235 -15.460305 11.949068 4.318416 -0.424520 -9.619671 -24.656515 -14.650800 16.690342 48.259821 1.023849 10.235201 1.013784 0.384770 0.284790 0.272870 18.080903 -10.074510 2.650332 -21.256893 -0.337919 -22.880126 3.968249 -3.192861 3.625018 -0.026201 -2.878176 3.230916 0.296670 0.118860 0.118100 -2.944682 -1.298321 -8.226851 2.842869 6.134757 19.452579 5.092023 6.758345 5.540520 0.565070 7.596409 -4.230260 10.158416 -7.030934 40.338487 4.761290 -2.366480 -5.616740 -20.598510 -1.118110 -1.569513 -29.834880 -20.048631 2.511105 90.097759 -66.993012 -58.544652 -3.241266 1.145619 0.178550 0.118460 -0.005870 0.127180 20.294263 -2.042893 1.009318 39.819309 0.758377 -5.844670 -6.275586 16.612271 -1.505607 2.365171 -1.358690 -0.100610 0.157610 -0.086970 -0.119720 
-1.115350 14.994290 0.477980 -6.824590 0.679538 -12.722489 -15.514517 12.040527 4.397359 0.158262 -9.623971 -22.750259 -18.442257 18.465835 47.424686 1.182076 10.698116 0.886329 0.403990 0.310930 0.294730 18.032465 -9.889647 2.681324 -19.325961 -0.310777 -25.214137 5.424016 -3.293888 4.523098 -0.007670 -2.667353 3.300437 0.307250 0.100130 0.118390 -2.784796 -1.739704 -8.325151 2.150761 5.563810 21.477210 4.122330 6.329926 6.095878 0.831202 7.614261 -4.617745 9.736812 -6.839478 40.975107 4.671900 -1.923480 -6.038590 -20.656481 -2.670844 -2.058280 -27.633670 -23.797091 3.566418 90.301887 -64.789012 -56.948553 -3.290105 1.354268 0.188250 0.109140 0.013460 0.128080 19.694650 -1.150850 2.184664 37.721093 -1.538869 -5.567882 -7.542570 14.414724 -1.370799 2.384966 -1.365919 -0.094050 0.156880 -0.101680 -0.125140 
-1.023730 14.946190 0.501500 -6.349600 0.564226 -14.546766 -15.547344 12.268882 4.473508 0.506427 -9.430433 -20.140260 -21.698189 19.605325 45.903124 1.274109 10.930418 0.818960 0.414520 0.325110 0.317850 17.990835 -9.836842 2.602737 -16.590438 -0.228401 -27.975149 5.709408 -3.638820 8.004718 0.027065 -2.414421 3.378977 0.311190 0.068390 0.120880 -2.666700 -2.260164 -8.369577 2.091634 4.417626 23.903865 3.433429 5.363472 6.862971 0.867512 7.258440 -5.213014 8.673311 -5.990231 41.228330 4.135810 -0.909670 -6.777070 -20.039533 -4.522960 -2.249381 -24.618069 -26.767614 3.973038 90.077792 -63.123177 -55.448699 -3.325443 1.498190 0.207130 0.097050 0.033840 0.113780 18.804763 0.178454 3.452825 35.364850 -3.406318 -5.072966 -9.996204 11.336609 -1.172227 2.420104 -1.380405 -0.090170 0.144540 -0.105520 -0.142670 
-0.942100 14.903340 0.542540 -5.888163 0.512646 -16.085974 -15.582831 12.358024 4.491467 0.817119 -9.183165 -17.088885 -25.491640 20.920725 44.086079 1.391123 11.233676 0.757873 0.398830 0.297000 0.319850 17.971036 -9.590069 2.719080 -14.526186 0.149809 -29.934200 8.944713 -4.314024 9.988635 0.027158 -2.472234 3.354309 0.298610 0.073550 0.119600 -2.583264 -2.766304 -8.462931 1.877379 3.207706 25.477924 2.835854 4.295286 7.919723 0.574559 6.458884 -5.785370 6.683824 -5.081393 41.329882 3.826540 -0.562110 -6.939150 -18.669445 -5.870633 -2.387604 -21.717974 -29.400428 4.313715 89.848551 -60.961577 -53.601884 -3.390366 1.651739 0.221280 0.097960 0.029820 0.103280 17.787076 1.267234 4.701592 33.393297 -5.878436 -4.839122 -11.853387 8.925197 -0.911893 2.447452 -1.386990 -0.104880 0.152770 -0.091480 -0.153420 
-0.869080 14.892300 0.569500 -5.356124 1.315712 -17.677116 -15.632429 12.540784 4.464256 0.907097 -8.802164 -13.475097 -28.323306 21.097029 41.209060 1.443091 11.154782 0.816647 0.372440 0.269410 0.289310 17.931225 -9.405778 2.790443 -12.157296 0.492178 -31.553003 11.446820 -5.249252 13.210833 0.016429 -2.673475 3.286202 0.280410 0.094700 0.115940 -2.455156 -3.355356 -8.498096 0.708858 1.851327 27.188793 2.441373 2.928958 8.852430 0.143872 5.831308 -6.382289 5.107783 -3.986052 41.310784 4.439590 -0.319880 -6.186990 -17.905500 -7.511004 -2.461072 -17.704899 -31.515213 4.116459 90.606079 -58.087649 -51.915641 -3.475074 1.854544 0.206630 0.104950 0.011740 0.105960 17.761086 2.464152 5.991758 30.651732 -8.704846 -4.176466 -11.519922 5.534619 -0.435681 2.505890 -1.386595 -0.108380 0.147380 -0.080610 -0.142470 
-0.777670 14.891820 0.577440 -4.662669 2.404896 -18.990800 -15.671906 12.693042 4.444774 -0.026728 -8.579129 -10.289219 -29.984098 20.576186 38.579830 1.433509 10.930175 0.920501 0.374490 0.282210 0.273510 17.916030 -9.265283 2.837121 -9.509247 0.872521 -33.553337 12.554818 -6.457304 18.159401 -0.026260 -3.046138 3.157144 0.296260 0.120610 0.103090 -2.379602 -3.864559 -8.498489 -0.690187 0.146052 28.874179 1.669835 1.116130 9.460128 -0.245062 5.100812 -6.409144 3.586880 -2.656637 40.388914 4.999260 0.080140 -6.337880 -16.941392 -7.915904 -2.967771 -12.850951 -33.021325 3.336894 90.365652 -55.726774 -49.332930 -3.549584 2.008510 0.190300 0.114380 -0.006570 0.119800 17.541787 2.449274 6.505529 27.052668 -10.490501 -3.441339 -10.532116 3.814816 -0.231894 2.530332 -1.375986 -0.118370 0.166060 -0.083070 -0.131400 
